HIERARCHY
ROOT RootJoint
{
    OFFSET   0.000000   0.000000   0.000000
    CHANNELS 6 Xposition Yposition Zposition Xrotation Yrotation Zrotation
    JOINT pelvis_lowerback
    {
        OFFSET   0.000000   0.093605   0.000000
        CHANNELS 3 Xrotation Yrotation Zrotation
        JOINT lowerback_torso
        {
            OFFSET   0.000000   0.100000   0.000000
            CHANNELS 3 Xrotation Yrotation Zrotation
            JOINT torso_head
            {
                OFFSET   0.000000   0.282350   0.000000
                CHANNELS 3 Xrotation Yrotation Zrotation
                End Site
                {
                    OFFSET   0.000000   0.192650   0.000000
                }
            }
            JOINT rTorso_Clavicle
            {
                OFFSET  -0.001000   0.157500   0.000000
                CHANNELS 3 Xrotation Yrotation Zrotation
                JOINT rShoulder
                {
                    OFFSET  -0.117647   0.000000   0.000000
                    CHANNELS 3 Xrotation Yrotation Zrotation
                    JOINT rElbow
                    {
                        OFFSET  -0.245000   0.000000   0.000000
                        CHANNELS 3 Xrotation Yrotation Zrotation
                        JOINT rWrist
                        {
                            OFFSET  -0.240000   0.000000   0.000000
                            CHANNELS 3 Xrotation Yrotation Zrotation
                            End Site
                            {
                                OFFSET  -0.116353  -0.002500   0.000000
                            }
                        }
                    }
                }
            }
            JOINT lTorso_Clavicle
            {
                OFFSET   0.001000   0.157500   0.000000
                CHANNELS 3 Xrotation Yrotation Zrotation
                JOINT lShoulder
                {
                    OFFSET   0.117647   0.000000   0.000000
                    CHANNELS 3 Xrotation Yrotation Zrotation
                    JOINT lElbow
                    {
                        OFFSET   0.245000   0.000000   0.000000
                        CHANNELS 3 Xrotation Yrotation Zrotation
                        JOINT lWrist
                        {
                            OFFSET   0.240000   0.000000   0.000000
                            CHANNELS 3 Xrotation Yrotation Zrotation
                            End Site
                            {
                                OFFSET   0.116353  -0.002500   0.000000
                            }
                        }
                    }
                }
            }
        }
    }
    JOINT rHip
    {
        OFFSET  -0.100000  -0.051395   0.000000
        CHANNELS 3 Xrotation Yrotation Zrotation
        JOINT rKnee
        {
            OFFSET   0.000000  -0.410000   0.000000
            CHANNELS 3 Xrotation Yrotation Zrotation
            JOINT rAnkle
            {
                OFFSET   0.000000  -0.390000   0.000000
                CHANNELS 3 Xrotation Yrotation Zrotation
                JOINT rToeJoint
                {
                    OFFSET   0.000000  -0.050000   0.130000
                    CHANNELS 3 Xrotation Yrotation Zrotation
                    End Site
                    {
                        OFFSET  -0.010000   0.002000   0.060000
                    }
                }
            }
        }
    }
    JOINT lHip
    {
        OFFSET   0.100000  -0.051395   0.000000
        CHANNELS 3 Xrotation Yrotation Zrotation
        JOINT lKnee
        {
            OFFSET   0.000000  -0.410000   0.000000
            CHANNELS 3 Xrotation Yrotation Zrotation
            JOINT lAnkle
            {
                OFFSET   0.000000  -0.390000   0.000000
                CHANNELS 3 Xrotation Yrotation Zrotation
                JOINT lToeJoint
                {
                    OFFSET   0.000000  -0.050000   0.130000
                    CHANNELS 3 Xrotation Yrotation Zrotation
                    End Site
                    {
                        OFFSET   0.010000   0.002000   0.060000
                    }
                }
            }
        }
    }
}
MOTION
Frames: 8
Frame Time:   0.008333
 -2.376719   0.925631   3.975860   0.000000   0.000000   0.000000   0.000000   0.000000   0.000000   0.000000   0.000000   0.000000   0.000000   0.000000   0.000000   0.000000   0.000000   0.000000   0.000000   0.000000   0.000000   0.000000   0.000000   0.000000   0.000000   0.000000   0.000000   0.000000   0.000000   0.000000   0.000000   0.000000   0.000000   0.000000   0.000000   0.000000   0.000000   0.000000   0.000000   0.000000   0.000000   0.000000   0.000000   0.000000   0.000000   0.000000   0.000000   0.000000   0.000000   0.000000   0.000000   0.000000   0.000000   0.000000   0.000000   0.000000   0.000000   0.000000   0.000000   0.000000   0.000000   0.000000   0.000000
 -2.377468   0.926026   3.974667   0.801233   0.069393  -0.675097  -0.642676   0.107538   0.466100  -0.111568  -0.426910   0.352305  -0.209201  -0.161916   0.150513   0.066438  -0.655047   0.024500   0.261920   0.540194   2.175948   0.049223   2.392565  -0.008710   0.163518  -1.050450  -2.960930   0.288219   0.529455  -0.203127   1.155542   0.264502  -2.160935   0.012677  -0.652635   0.008495   0.202511  -0.185003   2.525062  -1.344328  -0.045590   0.965625   2.099085  -0.005337   0.000849  -2.635308  -0.569303  -0.560736   0.215692   0.000492  -0.001018  -1.982843  -0.116189   0.749627   2.108342  -0.001435  -0.000391  -1.180530   0.145048  -0.050157   0.450885  -0.000104   0.000478
 -2.378374   0.926686   3.973672   1.511240   0.038347  -1.439487  -1.225096   0.268240   0.955783  -0.199241  -0.785874   0.786711  -0.398713  -0.330851   0.325475   0.130128  -1.243030   0.726274   0.480477   1.161410   4.886274   0.112820   4.716717  -0.014273   0.343051  -1.384534  -5.265181   0.577592   1.101412  -1.043731   2.314559   0.547220  -4.845456   0.027886  -1.250430   0.014405   0.460197  -0.424459   4.379654  -2.359060  -0.114800   2.126270   4.308389  -0.011940   0.000251  -5.111595  -1.078069  -1.102790   0.270801   0.000457  -0.001096  -4.063134  -0.240660   1.530784   4.202078  -0.001634  -0.001604  -2.271965   0.285614  -0.090698   0.884947  -0.000003   0.000632
 -2.379254   0.927232   3.972890   2.167385  -0.100152  -2.180965  -1.786556   0.486281   1.425727  -0.284169  -1.049200   1.221706  -0.572077  -0.490648   0.492131   0.202250  -1.754704   1.857909   0.655287   1.818496   7.950241   0.174560   6.900263  -0.016797   0.517315  -1.510366  -6.773186   0.858268   1.670378  -2.271645   3.475934   0.805839  -7.865815   0.042056  -1.795579   0.018096   0.713533  -0.615980   5.503801  -3.076728  -0.198762   3.319962   6.468611  -0.018219  -0.001666  -7.424565  -1.529745  -1.624683   0.319195   0.000395  -0.001144  -6.189531  -0.376309   2.216270   6.118182  -0.000634  -0.003619  -3.290605   0.417253  -0.125122   1.285153   0.000317   0.000468
 -2.380055   0.927389   3.972275   2.783815  -0.338604  -2.877201  -2.331146   0.754235   1.875459  -0.376376  -1.226804   1.641440  -0.734422  -0.639875   0.645553   0.288749  -2.200834   3.240429   0.787668   2.502941  11.253823   0.227442   8.943019  -0.017357   0.678956  -1.572779  -7.675503   1.131887   2.229888  -3.721081   4.643995   1.025654 -11.113950   0.053767  -2.294902   0.020167   0.954769  -0.760044   6.089271  -3.545413  -0.287639   4.503212   8.555424  -0.023798  -0.004472  -9.585626  -1.931488  -2.125912   0.363317   0.000329  -0.001178  -8.348883  -0.522576   2.794025   7.852056   0.000968  -0.006114  -4.243700   0.539743  -0.154798   1.644225   0.000742   0.000096
 -2.380877   0.927096   3.972021   3.422238  -0.856843  -3.441181  -2.939440   1.133223   2.231848  -0.506029  -1.272873   2.020148  -0.884247  -0.776898   0.785915   0.390881  -2.582221   4.777703   0.877500   3.216966  14.734483   0.269149  10.855526  -0.015752   0.832031  -1.594377  -8.146147   1.407898   2.817810  -5.276899   5.825143   1.225727 -14.511928   0.062310  -2.745265   0.020863   1.178761  -0.836831   6.318061  -3.857721  -0.364216   5.599460  10.553287  -0.029240  -0.010865 -11.605305  -2.287798  -2.603027   0.404675   0.000265  -0.001269 -10.287359  -0.751294   3.454449   9.877754  -0.001492  -0.014292  -4.963524   0.594267  -0.078804   1.902915   0.000241  -0.001010
 -2.381448   0.926281   3.971956   4.149429  -1.437782  -3.891432  -3.615579   1.516181   2.565049  -0.698611  -1.264500   2.369685  -1.034519  -0.906269   0.903900   0.512807  -2.922982   6.428044   0.925801   3.897786  18.147459   0.297887  12.641853  -0.013118   0.972289  -1.599542  -8.242438   1.686565   3.405334  -6.898936   7.018964   1.380960 -18.032898   0.067986  -3.155663   0.020741   1.385246  -0.863139   6.285126  -4.070520  -0.447672   6.594743  12.440073  -0.033700  -0.016527 -13.492592  -2.607005  -3.059541   0.444811   0.000212  -0.001345 -12.030933  -0.924032   4.005014  11.924334  -0.003604  -0.020835  -5.600330   0.685052  -0.077696   2.160109   0.000026  -0.001807
 -2.381273   0.924008   3.971198   4.527295  -1.747736  -3.883162  -3.733409   1.876731   2.550378  -0.711791  -1.241073   2.596799  -1.602397  -0.804627   0.747194   0.717355  -3.042965   7.517866   0.923331   4.519274  21.356671   0.324642  14.761168  -0.021658   1.015072  -2.032893  -7.299624   1.851083   3.839140  -7.877009   8.053779   1.176548 -21.550540   0.073588  -3.652146   0.021918   1.445254  -0.765659   5.249938  -3.316194  -0.409578   7.005505  12.576929  -0.027507  -0.013558 -14.986410  -2.940695  -3.560588   0.897255   0.000584  -0.003967 -14.059686  -0.746187   3.864604  15.216636   0.001184  -0.017290  -6.299366   0.643414   0.057799   2.210698   0.000036  -0.001467
